<svg width="32" height="32" viewBox="0 0 32 32" fill="none" xmlns="http://www.w3.org/2000/svg">
  <style>
    .quill-stroke { stroke: #0f172a; }
    .quill-fill { fill: #0f172a; }
    @media (prefers-color-scheme: dark) {
      .quill-stroke { stroke: #e2e8f0; }
      .quill-fill { fill: #e2e8f0; }
    }
  </style>

  <!-- Feather outline -->
  <path
    class="quill-stroke"
    d="M23 3 C19 7, 13 15, 9 23 C17 19, 25 9, 23 3 Z"
    stroke-width="1.5"
    stroke-linecap="round"
    stroke-linejoin="round"
    fill="none"
  />

  <!-- Rachis -->
  <path
    class="quill-stroke"
    d="M23 3 C18 10, 12 18, 9 23"
    stroke-width="1.3"
    stroke-linecap="round"
    fill="none"
  />

  <!-- Barbs -->
  <path class="quill-stroke" d="M20 7 L17 9" stroke-width="0.8" stroke-linecap="round" opacity="0.5" fill="none"/>
  <path class="quill-stroke" d="M17 12 L14 13.5" stroke-width="0.8" stroke-linecap="round" opacity="0.5" fill="none"/>
  <path class="quill-stroke" d="M14 17 L11.5 18" stroke-width="0.8" stroke-linecap="round" opacity="0.5" fill="none"/>

  <!-- Nib -->
  <path class="quill-stroke" d="M9 23 L7 28" stroke-width="1.8" stroke-linecap="round" fill="none"/>

  <!-- Magic sparkles -->
  <path class="quill-fill" d="M5 24 L6 22.5 L7 24 L6 25.5 Z" opacity="0.55"/>
  <path class="quill-fill" d="M2.5 20.5 L3.2 19.5 L3.9 20.5 L3.2 21.5 Z" opacity="0.35"/>
  <path class="quill-fill" d="M3.5 27 L4 26.2 L4.5 27 L4 27.8 Z" opacity="0.4"/>
</svg>
